<svg width="420" height="420" viewBox="0 0 420 420" xmlns="http://www.w3.org/2000/svg">
  <circle cx="210" cy="210" r="20" stroke="#153e2e" stroke-width="1" fill="transparent"/>
  <circle cx="210" cy="210" r="40" stroke="#153e2e" stroke-width="1" fill="transparent"/>
  <circle cx="210" cy="210" r="60" stroke="#153e2e" stroke-width="1" fill="transparent"/>
  <circle cx="210" cy="210" r="80" stroke="#153e2e" stroke-width="1" fill="transparent"/>
  <circle cx="210" cy="210" r="100" stroke="#153e2e" stroke-width="1" fill="transparent"/>
  <circle cx="210" cy="210" r="120" stroke="#153e2e" stroke-width="1" fill="transparent"/>
  <circle cx="210" cy="210" r="140" stroke="#153e2e" stroke-width="1" fill="transparent"/>
  <circle cx="210" cy="210" r="160" stroke="#153e2e" stroke-width="1" fill="transparent"/>
  <circle cx="210" cy="210" r="180" stroke="#153e2e" stroke-width="1" fill="transparent"/>
  <circle cx="210" cy="210" r="200" stroke="#153e2e" stroke-width="1" fill="transparent"/>
  <line x1="10" y1="210" x2="190" y2="210" stroke="#00f17c" stroke-width="2"/>
  <line x1="210" y1="10" x2="210" y2="190" stroke="#00f17c" stroke-width="2"/>
  <line x1="230" y1="210" x2="410" y2="210" stroke="#00f17c" stroke-width="2"/>
  <line x1="210" y1="230" x2="210" y2="410" stroke="#00f17c" stroke-width="2"/>
  <line x1="16" y1="210" x2="210" y2="10" stroke="white" stroke-width="5"/>
  <line x1="210" y1="10" x2="292" y2="210" stroke="white" stroke-width="5"/>
  <line x1="292" y1="210" x2="210" y2="230" stroke="white" stroke-width="5"/>
  <line x1="210" y1="230" x2="16" y2="210" stroke="white" stroke-width="5"/>
  <circle cx="16" cy="210" r="6" stroke-width="0" fill="white"/>
  <circle cx="210" cy="10" r="6" stroke-width="0" fill="white"/>
  <circle cx="292" cy="210" r="6" stroke-width="0" fill="white"/>
  <circle cx="210" cy="230" r="6" stroke-width="0" fill="white"/>
  <circle cx="16" cy="210" r="4" stroke-width="0" fill="black"/>
  <circle cx="210" cy="10" r="4" stroke-width="0" fill="black"/>
  <circle cx="292" cy="210" r="4" stroke-width="0" fill="black"/>
  <circle cx="210" cy="230" r="4" stroke-width="0" fill="black"/>
  <circle cx="16" cy="210" r="2" stroke-width="0" fill="#00f17c"/>
  <circle cx="210" cy="10" r="2" stroke-width="0" fill="#00f17c"/>
  <circle cx="292" cy="210" r="2" stroke-width="0" fill="#00f17c"/>
  <circle cx="210" cy="230" r="2" stroke-width="0" fill="#00f17c"/>
</svg>
